<svg xmlns="http://www.w3.org/2000/svg" xmlns:xlink="http://www.w3.org/1999/xlink" width="0" height="0" style="position:absolute">
	
		<symbol id="caret-down" viewBox="0 0 24 24">
			<path d="M15.2 20.7c-1.1 1.8-3.3 2.4-5.1 1.3-.5-.3-1-.8-1.3-1.3L.5 6.9c-1-1.8-.5-4 1.3-5.1.6-.3 1.2-.5 1.9-.5h16.6C22.3 1.3 24 3 24 5c0 .7-.2 1.3-.5 1.9z"></path>
		</symbol>
	
		<symbol id="caret-up" viewBox="0 0 24 24">
			<path d="M23.5 17c.3.6.5 1.2.5 1.9 0 2-1.7 3.7-3.7 3.7H3.7c-.7 0-1.3-.2-1.9-.5C0 21-.5 18.8.5 17L8.8 3.2c.3-.5.8-1 1.3-1.3 1.8-1.1 4-.5 5.1 1.3z"></path>
		</symbol>
	
		<symbol id="check-circle" viewBox="0 0 24 24">
			<path d="M12 0C5.4 0 0 5.4 0 12s5.4 12 12 12 12-5.4 12-12S18.6 0 12 0zm6.2 8.7l-7.7 7.8c-.2.2-.4.3-.7.3s-.5-.1-.7-.3l-3.2-3.2c-.1-.1-.1-.2 0-.3l1-1c.1-.1.2-.1.3 0l2.6 2.6 7-7.1s.1-.1.2-.1.1 0 .2.1l1 1v.2z"></path>
		</symbol>
	
		<symbol id="danger-circle" viewBox="0 0 24 24">
			<path d="M12 0C5.4 0 0 5.4 0 12s5.4 12 12 12 12-5.4 12-12S18.6 0 12 0zm0 5.3c.6 0 1 .4 1 1l-.2 6.7c0 .5-.3.8-.8.9-.5 0-.8-.4-.8-.8L11 6.3c0-.5.4-1 1-1zm0 12.4c-.6 0-1.1-.5-1-1.1 0-.6.5-1 1.1-1s1 .5 1 1.1c0 .5-.5 1-1.1 1z"></path>
		</symbol>
	
		<symbol id="discord" viewBox="0 0 24 24">
			<path d="M20.2 0c1.4 0 2.5 1.1 2.6 2.5V24l-2.7-2.3-1.5-1.3-1.5-1.4.7 2.2h-14c-1.4 0-2.5-1.1-2.5-2.5V2.5C1.2 1.1 2.3 0 3.7 0zm-6.1 5.7l-.2.2C16 6.5 17 7.4 17 7.4c-1.3-.7-2.5-1-3.7-1.1-.9-.1-1.7-.1-2.5 0h-.2c-.5 0-1.5.2-2.8.7-.5.2-.8.4-.8.4s1-1 3.2-1.5l-.1-.1s-1.7-.1-3.5 1.3c0 0-1.8 3.1-1.8 7 0 0 1 1.7 3.7 1.8l.8-1c-1.5-.5-2.1-1.4-2.1-1.4s.1.1.3.2H7.8c.2.1.6.2.8.3.5.2 1.1.4 1.8.5.9.1 2 .2 3.2 0 .6-.1 1.2-.3 1.8-.5.4-.2.9-.4 1.4-.7 0 0-.6.9-2.2 1.4.3.5.8 1 .8 1 2.7-.1 3.8-1.8 3.9-1.7 0-3.9-1.8-7-1.8-7-1.7-1.3-3.2-1.3-3.4-1.3zm.2 4.4c.7 0 1.3.6 1.3 1.3s-.6 1.3-1.3 1.3-1.3-.6-1.3-1.3.6-1.3 1.3-1.3zm-4.6 0c.7 0 1.3.6 1.3 1.3s-.6 1.3-1.3 1.3-1.3-.6-1.3-1.3c.1-.7.6-1.3 1.3-1.3z" fill='current'></path>
		</symbol>
	
		<symbol id="download" viewBox="0 0 24 24">
			<path d="M19.7 23H4.3C2.5 23 1 21.5 1 19.7v-4.4c0-.6.5-1.1 1.1-1.1s1.1.5 1.1 1.1v4.4c0 .6.5 1.1 1.1 1.1h15.4c.6 0 1.1-.5 1.1-1.1v-4.4c0-.6.5-1.1 1.1-1.1s1.1.5 1.1 1.1v4.4c0 1.8-1.5 3.3-3.3 3.3z"></path><path d="M18.3 9c-.4-.4-1.1-.4-1.6 0l-3.6 3.6V2.1c0-.6-.5-1.1-1.1-1.1s-1.1.5-1.1 1.1v10.5L7.3 9c-.5-.4-1.1-.4-1.6 0s-.4 1.1 0 1.6l5.5 5.5c.1.1.2.2.4.2.1.1.3.1.4.1s.3 0 .4-.1.3-.1.4-.2l5.5-5.5c.4-.5.4-1.1 0-1.6z"></path>
		</symbol>
	
		<symbol id="eye-off" viewBox="0 0 24 24">
			<path d="M10.1 5.1c.6-.1 1.2-.2 1.9-.2 5.5 0 9.1 5.6 10 7.1-.5.9-1.1 1.8-1.8 2.6-.3.4-.3 1 .1 1.3.2.1.4.2.6.2.3 0 .5-.1.7-.3.9-1 1.6-2.2 2.3-3.4.1-.3.1-.6 0-.8C23.7 11.2 19.5 3 12 3c-.8 0-1.6.1-2.3.3-.5.1-.8.6-.7 1.1s.6.8 1.1.7zM23.7 22.4L1.6.3C1.2-.1.7-.1.3.3s-.4.9 0 1.3L4.7 6C2.8 7.6 1.3 9.4.2 11.6c-.1.3-.1.6 0 .8.1.4 4.3 8.6 11.8 8.6 2.1 0 4.1-.7 5.9-1.8l4.5 4.5c.2.2.4.3.7.3.2 0 .5-.1.7-.3.3-.3.3-.9-.1-1.3zM10 11.3l2.7 2.7c-.7.3-1.6.2-2.2-.4-.7-.6-.8-1.5-.5-2.3zm2 7.8c-5.5 0-9.1-5.6-10-7.1 1-1.8 2.4-3.4 4-4.7L8.7 10c-1 1.6-.8 3.7.6 5 .7.7 1.7 1 2.6 1 .8 0 1.5-.2 2.1-.6l2.5 2.5c-1.3.8-2.9 1.2-4.5 1.2z"></path>
		</symbol>
	
		<symbol id="help" viewBox="0 0 24 24">
			<path d="M12 1.6c5.7 0 10.4 4.7 10.4 10.4S17.7 22.4 12 22.4 1.6 17.7 1.6 12c0-2.8 1.1-5.4 3-7.3 2-2 4.6-3.1 7.4-3.1M12 0C5.4 0 0 5.4 0 12s5.4 12 12 12 12-5.4 12-12S18.6 0 12 0z"></path><path d="M12 6.5c2.2 0 3.7 1.2 3.7 2.9 0 1.1-.6 2.1-1.6 2.6-1 .6-1.3 1-1.3 1.7v.5h-2v-.5c-.2-1.1.4-2.1 1.4-2.5 1-.6 1.4-1 1.4-1.7-.1-.8-.8-1.3-1.5-1.2-.8 0-1.5.6-1.5 1.4H8.3c0-1.9 1.4-3.2 3.7-3.2zm-1.5 9.8c0-.7.5-1.3 1.2-1.3s1.3.5 1.3 1.2-.5 1.3-1.2 1.3h-.1c-.6 0-1.2-.5-1.2-1.2z"></path>
		</symbol>
	
		<symbol id="opensea" viewBox="0 0 24 24">
			<path d="M12 0C5.4 0 0 5.4 0 12s5.4 12 12 12 12-5.4 12-12S18.6 0 12 0zm7.8 14.1s0 .1-.1.1c-.5.2-1 .5-1.4 1-.9 1.2-1.5 3-3 3H9.1c-2.2 0-4-1.8-4-4V14c0-.1 0-.1.1-.1h3.5c.1 0 .1.1.1.1 0 .2 0 .5.1.7.2.4.6.7 1.1.7h1.7V14H10c-.1 0-.1-.1-.1-.1v-.1s0-.1.1-.1c.2-.2.4-.6.6-1 .2-.3.3-.6.4-.9 0-.1 0-.1.1-.2 0-.1.1-.2.1-.3s0-.2.1-.2c.1-.3.1-.5.1-.8V10v-.3-.3c0-.2-.1-.3-.1-.5v-.1c0-.1-.1-.2-.1-.3-.1-.3-.2-.7-.3-1 0-.1-.1-.2-.1-.4-.1-.2-.1-.3-.2-.5 0-.1-.1-.1-.1-.2s-.1-.1-.1-.2-.1-.1-.1-.2l-.4-.1v-.1l1.3.4h.2l.2.1h.1v-.8c0-.4.3-.7.7-.7.2 0 .4.1.5.2s.2.3.2.5v1.2h.1l.1.1s.1.1.2.1c.1.1.3.2.4.4l.1.1c.2.2.5.4.7.7l.2.2c.1.1.1.2.2.2.1.1.2.2.2.3s.1.1.1.2c.1.1.2.3.3.4 0 .1.1.1.1.2.1.2.2.4.2.6v.9c0 .1 0 .2-.1.3 0 .1-.1.2-.1.3-.1.2-.2.3-.3.5 0 .1-.1.1-.1.2s-.1.1-.1.2c-.1.1-.1.2-.2.2l-.2.2c-.1.1-.2.2-.2.3s-.1.1-.2.2l-.2.2c-.1.1-.2.1-.2.2l.1.1h-1.1v1.3h1.3c.3 0 .6-.1.8-.3.3-.3.6-.5.8-.8h.1l3.7-1.1c.1 0 .1 0 .1.1v.9z"></path>
		</symbol>
	
		<symbol id="play" viewBox="0 0 24 24">
			<path d="M12 24C5.4 24 0 18.6 0 12 0 7.2 2.9 2.8 7.3 1c6.1-2.6 13.1.3 15.7 6.4s-.3 13.1-6.4 15.7c-1.4.6-3 .9-4.6.9zM8.6 7.4v9.5l9.8-4.8z"></path>
		</symbol>
	
		<symbol id="scroll-down" viewBox="0 0 24 24">
			<path d="M12 24C5.4 24 0 18.6 0 12S5.4 0 12 0s12 5.4 12 12-5.4 12-12 12zM12 .5C5.7.5.5 5.7.5 12S5.6 23.5 12 23.5c6.3 0 11.5-5.1 11.5-11.5C23.5 5.7 18.3.5 12 .5z"></path><path d="M12 17.4c-.1 0-.1 0-.2-.1l-4.2-4.2c-.1-.1-.1-.3 0-.4s.3-.1.4 0l4.1 4.1 4.1-4.1c.1-.1.3-.1.4 0s.1.3 0 .4l-4.2 4.2c-.3.1-.3.1-.4.1z"></path><path d="M12 13.2c-.1 0-.1 0-.2-.1L7.5 8.9c-.1-.1-.1-.3 0-.4s.3-.1.4 0l4.1 4.1 4-4.1c.1-.1.3-.1.4 0s.1.3 0 .4l-4.2 4.2c-.1.1-.1.1-.2.1z"></path>
		</symbol>
	
		<symbol id="share" viewBox="0 0 24 24">
			<path d="M18 15c-1 0-2 .3-2.8 1l-4.8-3c.1-.6.1-1.3 0-2l4.8-3c1.9 1.5 4.8 1.2 6.3-.7s1.2-4.8-.7-6.3-4.8-1.2-6.3.7c-.8 1.1-1.2 2.4-.9 3.8l-4.8 3C6.9 6.9 4 7.2 2.5 9.2s-1.3 4.8.7 6.3c1.6 1.3 4 1.3 5.6 0l4.8 3c-.5 2.4 1 4.8 3.4 5.4 2.4.5 4.8-1 5.4-3.4s-1-4.8-3.4-5.4c-.3-.1-.7-.1-1-.1z"></path>
		</symbol>
	
		<symbol id="twitter" viewBox="0 0 24 24">
			<path d="M23 5.2c-.8.4-1.7.6-2.6.7.9-.6 1.6-1.4 2-2.5-.9.5-1.8.9-2.9 1.1-.8-.9-2-1.4-3.3-1.4-2.5 0-4.5 2-4.5 4.5 0 .4 0 .7.1 1-3.8-.2-7.1-2-9.3-4.7-.4.7-.6 1.4-.6 2.3 0 1.6.8 2.9 2 3.8-.7 0-1.4-.2-2-.6v.1c0 2.2 1.6 4 3.6 4.4-.4 0-.8.1-1.2.1-.3 0-.6 0-.8-.1C4 15.7 5.7 17 7.7 17c-1.6 1.3-3.5 2-5.6 2-.4 0-.7 0-1.1-.1 2 1.3 4.4 2 6.9 2 8.3 0 12.8-6.9 12.8-12.8v-.6c.9-.6 1.7-1.4 2.3-2.3z" fill='current'></path>
		</symbol>
	
		<symbol id="wallet" viewBox="0 0 24 24">
			<path d="M21.8 18.9v1.2c0 1.3-1 2.3-2.3 2.3H3.3c-1.3 0-2.3-1-2.3-2.3V3.9c0-1.3 1-2.3 2.3-2.3h16.2c1.3 0 2.3 1 2.3 2.3v1.2H11.4c-1.3 0-2.3 1-2.3 2.3v9.3c0 1.3 1 2.3 2.3 2.3h10.4zm-10.4-2.3H23V7.4H11.4zm4.7-2.9c-1 0-1.7-.8-1.7-1.7s.8-1.7 1.7-1.7 1.7.8 1.7 1.7-.8 1.7-1.7 1.7z" fill='current'></path>
		</symbol>
	
</svg>
